<svg width="512" height="512" viewBox="0 0 512 512" fill="none" xmlns="http://www.w3.org/2000/svg">
  <rect width="512" height="512" rx="140" fill="#2748E8"/>
  <path d="M130 130H382C402.435 130 419 146.565 419 167V192C419 212.435 402.435 229 382 229H288V340C330.5 340 375.5 315.5 402.5 330C430.5 345 425.5 390.5 385 413.5C345 436.5 288 409 288 409V445C288 465.435 271.435 482 251 482H224C203.565 482 187 465.435 187 445V229H130C109.565 229 93 212.435 93 192V167C93 146.565 109.565 130 130 130Z" fill="#FFC107"/>
  <path d="M288 230C330.5 230 375.5 205.5 402.5 220C430.5 235 425.5 280.5 385 303.5C345 326.5 288 299 288 299V230Z" fill="#FFC107"/>
</svg>
