<svg xmlns="http://www.w3.org/2000/svg" viewBox="0 0 550 550" width="100%" height="100%">
  <rect width="100%" height="100%" fill="#f4f7f6" rx="15"/>
  <path d="M 70 60 Q 275 100 480 60" fill="#e9ecef" stroke="#ced4da" stroke-width="4"/>
  <text x="275" y="45" font-family="sans-serif" font-size="16" font-weight="bold" text-anchor="middle" fill="#6c757d" letter-spacing="2">ESCENARIO PRINCIPAL</text>

  <g id="sillas_vip" stroke="#999" stroke-width="1.5">
    
    <text x="40" y="140" font-family="sans-serif" font-weight="bold" font-size="14" fill="#495057" stroke="none">A</text>
    <rect id="A-1" x="70" y="120" width="30" height="30" rx="6" fill="#cccccc"/><rect id="A-2" x="110" y="120" width="30" height="30" rx="6" fill="#cccccc"/><rect id="A-3" x="150" y="120" width="30" height="30" rx="6" fill="#cccccc"/><rect id="A-4" x="190" y="120" width="30" height="30" rx="6" fill="#cccccc"/><rect id="A-5" x="230" y="120" width="30" height="30" rx="6" fill="#cccccc"/><rect id="A-6" x="290" y="120" width="30" height="30" rx="6" fill="#cccccc"/><rect id="A-7" x="330" y="120" width="30" height="30" rx="6" fill="#cccccc"/><rect id="A-8" x="370" y="120" width="30" height="30" rx="6" fill="#cccccc"/><rect id="A-9" x="410" y="120" width="30" height="30" rx="6" fill="#cccccc"/><rect id="A-10" x="450" y="120" width="30" height="30" rx="6" fill="#cccccc"/>

    <text x="40" y="180" font-family="sans-serif" font-weight="bold" font-size="14" fill="#495057" stroke="none">B</text>
    <rect id="B-1" x="70" y="160" width="30" height="30" rx="6" fill="#cccccc"/><rect id="B-2" x="110" y="160" width="30" height="30" rx="6" fill="#cccccc"/><rect id="B-3" x="150" y="160" width="30" height="30" rx="6" fill="#cccccc"/><rect id="B-4" x="190" y="160" width="30" height="30" rx="6" fill="#cccccc"/><rect id="B-5" x="230" y="160" width="30" height="30" rx="6" fill="#cccccc"/><rect id="B-6" x="290" y="160" width="30" height="30" rx="6" fill="#cccccc"/><rect id="B-7" x="330" y="160" width="30" height="30" rx="6" fill="#cccccc"/><rect id="B-8" x="370" y="160" width="30" height="30" rx="6" fill="#cccccc"/><rect id="B-9" x="410" y="160" width="30" height="30" rx="6" fill="#cccccc"/><rect id="B-10" x="450" y="160" width="30" height="30" rx="6" fill="#cccccc"/>

    <text x="40" y="220" font-family="sans-serif" font-weight="bold" font-size="14" fill="#495057" stroke="none">C</text>
    <rect id="C-1" x="70" y="200" width="30" height="30" rx="6" fill="#cccccc"/><rect id="C-2" x="110" y="200" width="30" height="30" rx="6" fill="#cccccc"/><rect id="C-3" x="150" y="200" width="30" height="30" rx="6" fill="#cccccc"/><rect id="C-4" x="190" y="200" width="30" height="30" rx="6" fill="#cccccc"/><rect id="C-5" x="230" y="200" width="30" height="30" rx="6" fill="#cccccc"/><rect id="C-6" x="290" y="200" width="30" height="30" rx="6" fill="#cccccc"/><rect id="C-7" x="330" y="200" width="30" height="30" rx="6" fill="#cccccc"/><rect id="C-8" x="370" y="200" width="30" height="30" rx="6" fill="#cccccc"/><rect id="C-9" x="410" y="200" width="30" height="30" rx="6" fill="#cccccc"/><rect id="C-10" x="450" y="200" width="30" height="30" rx="6" fill="#cccccc"/>

    <text x="40" y="260" font-family="sans-serif" font-weight="bold" font-size="14" fill="#495057" stroke="none">D</text>
    <rect id="D-1" x="70" y="240" width="30" height="30" rx="6" fill="#cccccc"/><rect id="D-2" x="110" y="240" width="30" height="30" rx="6" fill="#cccccc"/><rect id="D-3" x="150" y="240" width="30" height="30" rx="6" fill="#cccccc"/><rect id="D-4" x="190" y="240" width="30" height="30" rx="6" fill="#cccccc"/><rect id="D-5" x="230" y="240" width="30" height="30" rx="6" fill="#cccccc"/><rect id="D-6" x="290" y="240" width="30" height="30" rx="6" fill="#cccccc"/><rect id="D-7" x="330" y="240" width="30" height="30" rx="6" fill="#cccccc"/><rect id="D-8" x="370" y="240" width="30" height="30" rx="6" fill="#cccccc"/><rect id="D-9" x="410" y="240" width="30" height="30" rx="6" fill="#cccccc"/><rect id="D-10" x="450" y="240" width="30" height="30" rx="6" fill="#cccccc"/>

    <text x="40" y="300" font-family="sans-serif" font-weight="bold" font-size="14" fill="#495057" stroke="none">E</text>
    <rect id="E-1" x="70" y="280" width="30" height="30" rx="6" fill="#cccccc"/><rect id="E-2" x="110" y="280" width="30" height="30" rx="6" fill="#cccccc"/><rect id="E-3" x="150" y="280" width="30" height="30" rx="6" fill="#cccccc"/><rect id="E-4" x="190" y="280" width="30" height="30" rx="6" fill="#cccccc"/><rect id="E-5" x="230" y="280" width="30" height="30" rx="6" fill="#cccccc"/><rect id="E-6" x="290" y="280" width="30" height="30" rx="6" fill="#cccccc"/><rect id="E-7" x="330" y="280" width="30" height="30" rx="6" fill="#cccccc"/><rect id="E-8" x="370" y="280" width="30" height="30" rx="6" fill="#cccccc"/><rect id="E-9" x="410" y="280" width="30" height="30" rx="6" fill="#cccccc"/><rect id="E-10" x="450" y="280" width="30" height="30" rx="6" fill="#cccccc"/>

    <text x="40" y="340" font-family="sans-serif" font-weight="bold" font-size="14" fill="#495057" stroke="none">F</text>
    <rect id="F-1" x="70" y="320" width="30" height="30" rx="6" fill="#cccccc"/><rect id="F-2" x="110" y="320" width="30" height="30" rx="6" fill="#cccccc"/><rect id="F-3" x="150" y="320" width="30" height="30" rx="6" fill="#cccccc"/><rect id="F-4" x="190" y="320" width="30" height="30" rx="6" fill="#cccccc"/><rect id="F-5" x="230" y="320" width="30" height="30" rx="6" fill="#cccccc"/><rect id="F-6" x="290" y="320" width="30" height="30" rx="6" fill="#cccccc"/><rect id="F-7" x="330" y="320" width="30" height="30" rx="6" fill="#cccccc"/><rect id="F-8" x="370" y="320" width="30" height="30" rx="6" fill="#cccccc"/><rect id="F-9" x="410" y="320" width="30" height="30" rx="6" fill="#cccccc"/><rect id="F-10" x="450" y="320" width="30" height="30" rx="6" fill="#cccccc"/>

    <text x="40" y="380" font-family="sans-serif" font-weight="bold" font-size="14" fill="#495057" stroke="none">G</text>
    <rect id="G-1" x="70" y="360" width="30" height="30" rx="6" fill="#cccccc"/><rect id="G-2" x="110" y="360" width="30" height="30" rx="6" fill="#cccccc"/><rect id="G-3" x="150" y="360" width="30" height="30" rx="6" fill="#cccccc"/><rect id="G-4" x="190" y="360" width="30" height="30" rx="6" fill="#cccccc"/><rect id="G-5" x="230" y="360" width="30" height="30" rx="6" fill="#cccccc"/><rect id="G-6" x="290" y="360" width="30" height="30" rx="6" fill="#cccccc"/><rect id="G-7" x="330" y="360" width="30" height="30" rx="6" fill="#cccccc"/><rect id="G-8" x="370" y="360" width="30" height="30" rx="6" fill="#cccccc"/><rect id="G-9" x="410" y="360" width="30" height="30" rx="6" fill="#cccccc"/><rect id="G-10" x="450" y="360" width="30" height="30" rx="6" fill="#cccccc"/>

    <text x="40" y="420" font-family="sans-serif" font-weight="bold" font-size="14" fill="#495057" stroke="none">H</text>
    <rect id="H-1" x="70" y="400" width="30" height="30" rx="6" fill="#cccccc"/><rect id="H-2" x="110" y="400" width="30" height="30" rx="6" fill="#cccccc"/><rect id="H-3" x="150" y="400" width="30" height="30" rx="6" fill="#cccccc"/><rect id="H-4" x="190" y="400" width="30" height="30" rx="6" fill="#cccccc"/><rect id="H-5" x="230" y="400" width="30" height="30" rx="6" fill="#cccccc"/><rect id="H-6" x="290" y="400" width="30" height="30" rx="6" fill="#cccccc"/><rect id="H-7" x="330" y="400" width="30" height="30" rx="6" fill="#cccccc"/><rect id="H-8" x="370" y="400" width="30" height="30" rx="6" fill="#cccccc"/><rect id="H-9" x="410" y="400" width="30" height="30" rx="6" fill="#cccccc"/><rect id="H-10" x="450" y="400" width="30" height="30" rx="6" fill="#cccccc"/>

    <text x="40" y="460" font-family="sans-serif" font-weight="bold" font-size="14" fill="#495057" stroke="none">I</text>
    <rect id="I-1" x="70" y="440" width="30" height="30" rx="6" fill="#cccccc"/><rect id="I-2" x="110" y="440" width="30" height="30" rx="6" fill="#cccccc"/><rect id="I-3" x="150" y="440" width="30" height="30" rx="6" fill="#cccccc"/><rect id="I-4" x="190" y="440" width="30" height="30" rx="6" fill="#cccccc"/><rect id="I-5" x="230" y="440" width="30" height="30" rx="6" fill="#cccccc"/><rect id="I-6" x="290" y="440" width="30" height="30" rx="6" fill="#cccccc"/><rect id="I-7" x="330" y="440" width="30" height="30" rx="6" fill="#cccccc"/><rect id="I-8" x="370" y="440" width="30" height="30" rx="6" fill="#cccccc"/><rect id="I-9" x="410" y="440" width="30" height="30" rx="6" fill="#cccccc"/><rect id="I-10" x="450" y="440" width="30" height="30" rx="6" fill="#cccccc"/>

    <text x="40" y="500" font-family="sans-serif" font-weight="bold" font-size="14" fill="#495057" stroke="none">J</text>
    <rect id="J-1" x="70" y="480" width="30" height="30" rx="6" fill="#cccccc"/><rect id="J-2" x="110" y="480" width="30" height="30" rx="6" fill="#cccccc"/><rect id="J-3" x="150" y="480" width="30" height="30" rx="6" fill="#cccccc"/><rect id="J-4" x="190" y="480" width="30" height="30" rx="6" fill="#cccccc"/><rect id="J-5" x="230" y="480" width="30" height="30" rx="6" fill="#cccccc"/><rect id="J-6" x="290" y="480" width="30" height="30" rx="6" fill="#cccccc"/><rect id="J-7" x="330" y="480" width="30" height="30" rx="6" fill="#cccccc"/><rect id="J-8" x="370" y="480" width="30" height="30" rx="6" fill="#cccccc"/><rect id="J-9" x="410" y="480" width="30" height="30" rx="6" fill="#cccccc"/><rect id="J-10" x="450" y="480" width="30" height="30" rx="6" fill="#cccccc"/>
  </g>
</svg>
